<svg width="97" height="97" viewBox="0 0 97 97" fill="none" xmlns="http://www.w3.org/2000/svg">
<path d="M68.0313 32.0148H64.0294V24.4513C64.0294 20.2058 62.343 16.1343 59.341 13.1323C56.339 10.1304 52.2675 8.44389 48.0221 8.44389C43.7767 8.44389 39.7051 10.1304 36.7031 13.1323C33.7012 16.1343 32.0147 20.2058 32.0147 24.4513V32.0148H28.0129C24.8288 32.0148 21.7751 33.2796 19.5237 35.5311C17.2722 37.7826 16.0073 40.8362 16.0073 44.0203V76.035C16.0073 79.2191 17.2722 82.2727 19.5237 84.5242C21.7751 86.7757 24.8288 88.0406 28.0129 88.0406H68.0313C71.2154 88.0406 74.269 86.7757 76.5205 84.5242C78.772 82.2727 80.0368 79.2191 80.0368 76.035V44.0203C80.0368 40.8362 78.772 37.7826 76.5205 35.5311C74.269 33.2796 71.2154 32.0148 68.0313 32.0148ZM40.0184 24.4513C39.9646 22.2714 40.7765 20.1591 42.2766 18.5766C43.7766 16.994 45.8425 16.0702 48.0221 16.0074C50.2017 16.0702 52.2676 16.994 53.7676 18.5766C55.2676 20.1591 56.0796 22.2714 56.0258 24.4513V32.0148H40.0184V24.4513ZM72.0331 76.035C72.0331 77.0964 71.6115 78.1143 70.861 78.8648C70.1105 79.6153 69.0926 80.0369 68.0313 80.0369H28.0129C26.9515 80.0369 25.9336 79.6153 25.1831 78.8648C24.4326 78.1143 24.011 77.0964 24.011 76.035V44.0203C24.011 42.9589 24.4326 41.941 25.1831 41.1906C25.9336 40.4401 26.9515 40.0184 28.0129 40.0184H68.0313C69.0926 40.0184 70.1105 40.4401 70.861 41.1906C71.6115 41.941 72.0331 42.9589 72.0331 44.0203V76.035Z" fill="black"/>
<path d="M48.0221 48.0221C45.6477 48.0221 43.3265 48.7262 41.3522 50.0454C39.3779 51.3646 37.8391 53.2396 36.9305 55.4333C36.0218 57.6271 35.7841 60.041 36.2473 62.3698C36.7105 64.6987 37.8539 66.8378 39.5329 68.5168C41.2119 70.1959 43.3511 71.3393 45.68 71.8025C48.0088 72.2657 50.4227 72.028 52.6165 71.1193C54.8102 70.2107 56.6852 68.6719 58.0044 66.6976C59.3236 64.7233 60.0277 62.4021 60.0277 60.0277C60.0277 56.8436 58.7628 53.7899 56.5113 51.5385C54.2599 49.287 51.2062 48.0221 48.0221 48.0221ZM48.0221 64.0295C47.2306 64.0295 46.4569 63.7948 45.7988 63.3551C45.1407 62.9153 44.6278 62.2903 44.3249 61.5591C44.022 60.8279 43.9428 60.0232 44.0972 59.2469C44.2516 58.4707 44.6327 57.7576 45.1924 57.1979C45.7521 56.6383 46.4651 56.2571 47.2414 56.1027C48.0177 55.9483 48.8223 56.0275 49.5536 56.3304C50.2848 56.6333 50.9098 57.1462 51.3495 57.8043C51.7893 58.4624 52.024 59.2362 52.024 60.0277C52.024 61.089 51.6024 62.1069 50.8519 62.8574C50.1014 63.6079 49.0835 64.0295 48.0221 64.0295Z" fill="black"/>
</svg>
