<svg width="183" height="49" viewBox="0 0 183 49" fill="none" xmlns="http://www.w3.org/2000/svg">
<path d="M54.8369 14.749C55.9974 14.749 57.1528 14.9004 58.3032 15.2031C59.4637 15.4958 60.5031 15.9095 61.4214 16.4443L60.0137 19.729C59.1458 19.3153 58.3436 19.0176 57.6069 18.8359C56.8804 18.6442 56.1437 18.5483 55.397 18.5483C53.3081 18.5483 51.7188 19.179 50.6289 20.4404C49.5492 21.7018 49.0093 23.5334 49.0093 25.9351C49.0093 28.3771 49.5492 30.2288 50.6289 31.4902C51.7188 32.7415 53.3081 33.3672 55.397 33.3672C57.0116 33.3672 58.6968 32.9989 60.4526 32.2622L61.603 35.7285C59.3325 36.7376 57.057 37.2422 54.7764 37.2422C51.3454 37.2422 48.7166 36.2785 46.8901 34.3511C45.0636 32.4136 44.1504 29.6385 44.1504 26.0259C44.1504 23.6948 44.5742 21.6816 45.4219 19.9863C46.2695 18.291 47.4906 16.9943 49.085 16.0962C50.6895 15.1981 52.6068 14.749 54.8369 14.749ZM82.4766 29.4922C82.4766 32.0352 81.6895 33.9727 80.1152 35.3047C78.541 36.6367 76.2655 37.3027 73.2886 37.3027C70.2713 37.3027 67.9857 36.6418 66.4316 35.3198C64.8877 33.9979 64.1157 32.0553 64.1157 29.4922V15.0215H68.8687V29.5527C68.8687 32.2168 70.342 33.5539 73.2886 33.564C76.2453 33.564 77.7236 32.2269 77.7236 29.5527V15.0215H82.4766V29.4922ZM91.6948 37H87.0176V15.0215H94.5557C97.3005 15.0215 99.4045 15.6068 100.868 16.7773C102.341 17.9378 103.078 19.6382 103.078 21.8784C103.078 23.2609 102.724 24.4567 102.018 25.4658C101.312 26.4749 100.308 27.252 99.0059 27.7969L103.819 37H98.7637L94.7373 28.6294H91.6948V37ZM94.3589 25.2236C95.7212 25.2236 96.7253 24.9512 97.3711 24.4062C98.027 23.8512 98.355 23.0086 98.355 21.8784C98.355 20.7179 98.027 19.8703 97.3711 19.3354C96.7253 18.7905 95.7212 18.5181 94.3589 18.5181H91.6948V25.2236H94.3589ZM114.006 14.749C115.823 14.7389 117.866 15.1375 120.137 15.9448L119.183 19.5776C117.074 18.8309 115.359 18.4575 114.037 18.4575C112.967 18.4575 112.124 18.6694 111.509 19.0933C110.893 19.5171 110.585 20.0923 110.585 20.8188C110.585 21.606 110.868 22.2316 111.433 22.6958C112.008 23.16 113.053 23.5889 114.566 23.9824C116.797 24.5576 118.381 25.3548 119.319 26.374C120.258 27.3831 120.727 28.7757 120.727 30.5518C120.727 32.7012 120 34.3511 118.547 35.5015C117.104 36.6418 115.041 37.2119 112.356 37.2119C110.167 37.2119 107.82 36.7174 105.318 35.7285L106.438 32.2017C107.82 32.6961 108.951 33.0443 109.829 33.2461C110.707 33.4378 111.539 33.5337 112.326 33.5337C113.466 33.5337 114.344 33.2915 114.96 32.8071C115.586 32.3127 115.898 31.6315 115.898 30.7637C115.898 30.2087 115.767 29.7445 115.505 29.3711C115.243 28.9977 114.799 28.6647 114.173 28.3721C113.547 28.0693 112.644 27.7716 111.463 27.479C109.496 27.0047 108.058 26.2681 107.149 25.269C106.241 24.27 105.787 22.9531 105.787 21.3184C105.787 19.2295 106.504 17.6149 107.937 16.4746C109.38 15.3242 111.403 14.749 114.006 14.749Z" fill="white"/>
<path d="M128.341 31.354L126.555 37H121.893L129.022 15.0215H135.289L142.6 37H138.013L136.151 31.354H128.341ZM132.095 19.0781L129.4 27.8574H135.077L132.307 19.0781H132.095ZM159.053 37H145.294V15.0215H149.82V33.3975H159.053V37ZM175.552 37H161.793V15.0215H166.319V33.3975H175.552V37Z" fill="#D81E5B"/>
<rect x="3.72998" y="8.72983" width="33.3489" height="7.67903" rx="3.83951" fill="white"/>
<rect y="43.4228" width="54.338" height="7.67903" rx="3.83951" transform="rotate(-45 0 43.4228)" fill="#D81E5B"/>
<rect x="3.72998" y="43.7242" width="33.3489" height="7.67903" rx="3.83951" transform="rotate(-90 3.72998 43.7242)" fill="white"/>
</svg>
