<svg width="48" height="38" viewBox="0 0 48 38" fill="none" xmlns="http://www.w3.org/2000/svg">
<g clip-path="url(#clip0_3_86)">
<path d="M45.1977 1.18424L32.8555 2.19176C32.6174 2.21187 32.397 2.32464 32.2428 2.50534C32.0886 2.68603 32.0131 2.91988 32.0329 3.15557L32.3041 6.13602L32.3337 6.29558C32.3905 6.49605 32.5163 6.67057 32.6894 6.78897C32.8624 6.90737 33.0718 6.96221 33.2814 6.94401L38.9047 6.45716L25.831 23.0397L17.8906 17.767C17.6729 17.5724 17.4173 17.4239 17.1393 17.3307C16.8614 17.2376 16.5672 17.2018 16.2748 17.2255C15.9823 17.2492 15.6979 17.332 15.439 17.4686C15.1802 17.6053 14.9523 17.7929 14.7695 18.0201L1.55719 33.9071C1.23746 34.2908 1.0825 34.7832 1.12559 35.2787C1.16867 35.7742 1.40637 36.2333 1.78764 36.5573L2.38786 37.0679C2.58198 37.2331 2.80752 37.3581 3.05121 37.4358C3.29489 37.5134 3.5518 37.542 3.80682 37.5199C4.06185 37.4978 4.30983 37.4255 4.5362 37.3072C4.76256 37.1889 4.96272 37.027 5.12492 36.831L16.8723 22.6424L24.6152 27.7739L24.8098 27.9478C25.7292 28.7112 26.7441 28.8122 27.6993 27.9742L42.3176 9.54707L42.8368 15.4203C42.8786 15.8935 43.2899 16.2508 43.7682 16.2323L46.4709 16.1299C46.7094 16.1201 46.9342 16.0173 47.0963 15.8438C47.2583 15.6704 47.3443 15.4405 47.3354 15.2044L46.1675 1.99478C46.1463 1.76052 46.0326 1.544 45.851 1.39224C45.6694 1.24048 45.4347 1.16573 45.1977 1.18424V1.18424Z" fill="url(#paint0_linear_3_86)"/>
</g>
<defs>
<linearGradient id="paint0_linear_3_86" x1="3.36788" y1="30.1658" x2="36.5225" y2="-1.30991" gradientUnits="userSpaceOnUse">
<stop stop-color="#D81E5B"/>
<stop offset="1" stop-color="#F0544F"/>
</linearGradient>
<clipPath id="clip0_3_86">
<rect width="48" height="38" fill="white"/>
</clipPath>
</defs>
</svg>
